<svg width="64" height="64" viewBox="0 0 64 64" fill="none" xmlns="http://www.w3.org/2000/svg">
  <path d="M12 12H44C46.2091 12 48 13.7909 48 16V44C48 46.2091 46.2091 48 44 48H12C9.79086 48 8 46.2091 8 44V16C8 13.7909 9.79086 12 12 12Z" fill="#1CB0F6"/>
  <rect x="12" y="16" width="32" height="4" rx="2" fill="#FFFFFF" fill-opacity="0.3"/>
  
  <path d="M20 20H52C54.2091 20 56 21.7909 56 24V52C56 54.2091 54.2091 56 52 56H20C17.7909 56 16 54.2091 16 52V24C16 21.7909 17.7909 20 20 20Z" fill="#FFFFFF" stroke="#1CB0F6" stroke-width="4"/>
  <path d="M24 32H44" stroke="#1CB0F6" stroke-width="4" stroke-linecap="round"/>
  <path d="M24 40H38" stroke="#1CB0F6" stroke-width="4" stroke-linecap="round"/>
</svg>